<?xml version="1.0" encoding="utf-8"?>
<!-- Generator: Adobe Illustrator 18.1.1, SVG Export Plug-In . SVG Version: 6.00 Build 0)  -->
<svg version="1.1" id="Layer_1" xmlns="http://www.w3.org/2000/svg" xmlns:xlink="http://www.w3.org/1999/xlink" x="0px" y="0px"
	 viewBox="0 0 54 54" enable-background="new 0 0 54 54" xml:space="preserve">
<path fill="#C2C2C2" d="M53.9,45.7c0-0.1-0.1-0.1-0.1-0.2c0,0,0-0.1-0.1-0.1L49.2,40H51c1.7,0,3-1.3,3-3s-1.3-3-3-3s-3-1.3-3-3
	c0-11.2-8.9-20.4-20-20.9V5.9c2.3-0.5,4-2.5,4-4.9c0-0.6-0.4-1-1-1h-8c-0.6,0-1,0.4-1,1c0,2.4,1.7,4.4,4,4.9v4.2
	C14.9,10.6,6,19.8,6,31c0,1.7-1.3,3-3,3s-3,1.3-3,3s1.3,3,3,3h1.8l-4.6,5.3c0,0,0,0.1-0.1,0.1c0,0.1-0.1,0.1-0.1,0.2
	c0,0.1,0,0.1,0,0.2c0,0,0,0.1,0,0.1v7c0,0.6,0.4,1,1,1h52c0.6,0,1-0.4,1-1v-7c0,0,0-0.1,0-0.1C54,45.8,54,45.7,53.9,45.7z M24.2,2
	h5.7c-0.4,1.2-1.5,2-2.8,2S24.6,3.2,24.2,2z M8,31c0-10.5,8.5-19,19-19s19,8.5,19,19c0,1.1,0.4,2.2,1,3H7C7.6,33.2,8,32.1,8,31z
	 M2,37c0-0.6,0.4-1,1-1h48c0.6,0,1,0.4,1,1s-0.4,1-1,1H3C2.4,38,2,37.6,2,37z M46.5,40l4.3,5H3.2l4.3-5H46.5z M52,52H2v-5h50V52z"/>
</svg>
