<?xml version="1.0" encoding="utf-8"?>
<!-- Generator: Adobe Illustrator 18.1.1, SVG Export Plug-In . SVG Version: 6.00 Build 0)  -->
<svg version="1.1" id="Layer_1" xmlns="http://www.w3.org/2000/svg" xmlns:xlink="http://www.w3.org/1999/xlink" x="0px" y="0px"
	 viewBox="0 0 46.1 53.5" enable-background="new 0 0 46.1 53.5" xml:space="preserve">
<g>
	<path fill="#1D1D1B" d="M26.5,28.3c0,0.6,0.4,1,1,1s1-0.4,1-1c0-2.7-1.9-4.9-4.4-5.3v-3.5c0-0.6-0.4-1-1-1c-0.6,0-1,0.4-1,1V23
		c-2.5,0.5-4.4,2.7-4.4,5.3s1.9,4.9,4.4,5.3v6.8c-1.4-0.4-2.4-1.7-2.4-3.3c0-0.6-0.4-1-1-1s-1,0.4-1,1c0,2.7,1.9,4.9,4.4,5.3v3.5
		c0,0.6,0.4,1,1,1c0.6,0,1-0.4,1-1v-3.5c2.5-0.5,4.4-2.7,4.4-5.3s-1.9-4.9-4.4-5.3v-6.8C25.4,25.5,26.5,26.8,26.5,28.3z M19.6,28.3
		c0-1.5,1-2.8,2.4-3.3v6.5C20.6,31.2,19.6,29.9,19.6,28.3z M26.5,37.2c0,1.5-1,2.8-2.4,3.3v-6.5C25.4,34.4,26.5,35.7,26.5,37.2z"/>
	<path fill="#1D1D1B" d="M46,36.4c-0.7-12.6-10.9-21.1-15.2-23.9c3.3-2.5,7-7.8,6.2-9.9c-0.1-0.3-0.6-1.4-2.2-1.1
		c-1.4,0.3-2.7,1.1-3.7,1.8c-0.8,0.6-1.7,1.2-2.2,1c-0.2,0-0.6-0.3-1-1.3c-0.9-2-1.8-2.9-2.8-3c-1.3-0.2-2.1,0.9-3,1.9
		c-0.2,0.3-0.5,0.6-0.8,0.9c-0.3,0.3-0.5,0.6-0.8,0.9c-1.3,1.5-1.6,1.8-3.9,0C14,1.6,12,1.9,11.1,2.9c-0.8,0.9-0.8,2.2,0.2,3.3
		c1,1.2,3.3,4.5,4.4,6.1C11.7,14.7,0.8,23.4,0,36.4c-0.3,4.9,0.9,8.8,3.5,11.6C8.1,52.8,16,53.5,23,53.5c7.1,0,14.9-0.7,19.5-5.5
		C45.1,45.2,46.3,41.3,46,36.4z M12.6,4.2c0.2-0.2,1.2-0.3,2.8,1C18.9,8,20.4,6.8,22,5c0.2-0.3,0.5-0.5,0.7-0.8
		c0.3-0.3,0.6-0.7,0.9-1C24,2.8,24.6,2,24.8,2c0,0,0.5,0.1,1.3,1.9c0.6,1.3,1.4,2.1,2.3,2.4c1.4,0.4,2.6-0.5,3.8-1.3
		c0.9-0.6,1.9-1.3,2.9-1.5c-0.2,1.5-3.4,6.3-6.5,8c-2.2,0.4-4.3,0.6-6.3,0.6c-2.5,0-4.1-0.3-4.7-0.5c-0.8-1.2-3.6-5.3-4.9-6.8
		C12.6,4.6,12.5,4.3,12.6,4.2z M41,46.6c-4,4.3-11.4,4.9-18,4.9s-14-0.6-18-4.9c-2.2-2.4-3.2-5.8-3-10.1c0.8-13.2,13.1-21.6,15.2-23
		c0.8,0.2,2.5,0.5,5.2,0.5c2,0,4.2-0.2,6.4-0.5c1.9,1.2,14.4,9.7,15.2,23C44.3,40.8,43.3,44.2,41,46.6z"/>
</g>
</svg>
