<?xml version="1.0" encoding="utf-8"?>
<!-- Generator: Adobe Illustrator 18.1.1, SVG Export Plug-In . SVG Version: 6.00 Build 0)  -->
<svg version="1.1" id="Layer_1" xmlns="http://www.w3.org/2000/svg" xmlns:xlink="http://www.w3.org/1999/xlink" x="0px" y="0px"
	 viewBox="0 0 60 60" enable-background="new 0 0 60 60" xml:space="preserve">
<path fill="#ABB1B3" d="M59.6,44.8L52,34.1c0,0,0-0.1,0-0.1V1c0-0.1,0-0.3-0.1-0.4c-0.1-0.2-0.3-0.4-0.5-0.5C51.3,0,51.1,0,51,0H13
	c-0.1,0-0.3,0-0.4,0.1c-0.1,0.1-0.2,0.1-0.3,0.2l-12,12c-0.1,0.1-0.2,0.2-0.2,0.3C0,12.7,0,12.9,0,13v40c0,0.6,0.4,1,1,1h28h12h5v4
	c0,0.8,0.5,1.6,1.3,1.9C47.5,60,47.8,60,48,60c0.6,0,1.1-0.3,1.5-0.7l10-12C60.1,46.6,60.2,45.6,59.6,44.8z M49.6,30.8
	c-0.4-0.5-1-0.8-1.6-0.8c-0.2,0-0.4,0-0.6,0.1c-0.8,0.3-1.4,1-1.4,1.9v4h-6V13.5l10-10v27.9L49.6,30.8z M13.4,2h10.2l-10,10H3.4
	L13.4,2z M25.6,12h-9.2l9.8-9.8c0.1-0.1,0.1-0.1,0.1-0.2h9.2L25.6,12z M15,14h10v13.6c-1.3-1.3-3-3.1-4.3-4.3
	C20.5,23.1,20.3,23,20,23c-0.3,0-0.5,0.1-0.7,0.3L15,27.6V14z M38.4,2h10.2l-10,10H28.4L38.4,2z M2,52V14h11v16
	c0,0.4,0.2,0.8,0.6,0.9c0.4,0.2,0.8,0.1,1.1-0.2l5.3-5.3c5.5,5.6,5.5,5.6,6,5.6c0,0,0,0,0,0c0.3,0,0.5-0.1,0.7-0.3
	c0.2-0.2,0.3-0.4,0.3-0.7V14h11v22h-9c-1.1,0-2,0.9-2,2v14H2z M48,58c0-0.2,0-6,0-6h-7H29V38h19v-6l10,14L48,58z"/>
</svg>
