<?xml version="1.0" encoding="utf-8"?>
<!-- Generator: Adobe Illustrator 18.1.1, SVG Export Plug-In . SVG Version: 6.00 Build 0)  -->
<svg version="1.1" id="Layer_1" xmlns="http://www.w3.org/2000/svg" xmlns:xlink="http://www.w3.org/1999/xlink" x="0px" y="0px"
	 viewBox="0 0 217.6 110.6" enable-background="new 0 0 217.6 110.6" xml:space="preserve">
<path fill="#FFFFFF" d="M178.8,58.8L178.8,58.8l0-0.1c0-0.1,2.8-11.3-6.6-15.2c-5.7-2.4-9.5-0.7-12.5,0.7c-2,0.9-3.7,1.7-5.6,1.1
	c-28.5-8.6-45.4-8.4-45.6-8.4c-16.5-1.2-41,6.3-41,6.3c0.2-0.8,0.2-1.6,0.2-2.4c0-3.3-1.5-6.1-2.9-7.9c0.6,0.1,1.3,0.3,2,0.3
	c11.8,0.8,42.4-10,53.2-26.9l0.1-0.1l-0.1,0C109.2,1,86.8,9.6,75.5,14.6C82.8,9.7,90.1,4.4,90.1,1.8c0,0,0,0,0,0
	c0-0.5-0.3-0.8-0.7-1.1c-3.8-2.1-15,0.8-24.1,6.1C55.6,12.5,47.2,21,45.6,22.6c-1,0.3-5.2,1.4-10.3,3.7c-7.4,3.5-17.4,9.9-22.6,20.7
	c-0.6,1.2-0.9,2.3-0.9,3.4c0,1.1,0.3,2.1,0.9,3c4.2,6.6,22,7.4,25.7,7.5C23.7,73.3,7.5,89.6,0.5,104.3c0,0-1.3,4,0.5,5.6
	c1.2,1.1,3.4,0.9,6.7-0.4c1.8-0.7,7.1-3.8,13.8-7.7c12-6.9,28.3-16.3,33.7-17.6c7.6-2,17.3-1.4,28.6-0.8c18.5,1.1,39.5,2.3,58.3-7.3
	l0.2-0.1l-0.1,0.2c0,0-0.6,2,1.1,4.6c3,4.5,12.5,10.2,40.3,12.3c0.1,0,9.8,0.2,24.9,17.1c0.1,0,7-0.3,8.7-5.2
	C219.2,99.3,214.1,86.7,178.8,58.8z"/>
</svg>
