<?xml version="1.0" encoding="utf-8"?>
<!-- Generator: Adobe Illustrator 18.1.1, SVG Export Plug-In . SVG Version: 6.00 Build 0)  -->
<svg version="1.1" id="squiggle_xA0_Image_1_" xmlns="http://www.w3.org/2000/svg" xmlns:xlink="http://www.w3.org/1999/xlink"
	 x="0px" y="0px" viewBox="0 0 57.4 12.7" enable-background="new 0 0 57.4 12.7" xml:space="preserve">
<g>
	<path d="M1.4,6.8C1.7,6.5,2,6.2,2.4,5.9c0.7-0.7,1.5-1.4,2.1-2.2C5.1,2.9,6.1,2,7.1,2c0.7,0,1.5,0.6,2.3,1.7C11,5.9,12.5,7,14.2,7
		s3.2-1.1,4.8-3.3C19.6,2.9,20.5,2,21.5,2s1.8,1,2.4,1.7C25.5,5.9,27,7,28.7,7c1.7,0,3.2-1.1,4.8-3.3C34.1,2.9,35,2,36,2
		s1.8,1,2.4,1.7C40,5.9,41.5,7,43.2,7s3.2-1.1,4.8-3.3C48.8,2.6,49.6,2,50.4,2c0,0,0,0,0,0c1,0,1.9,0.9,2.5,1.7
		c0.6,0.8,1.4,1.5,2.1,2.2c0.3,0.3,0.6,0.6,0.9,0.9c0.2,0.2,0.5,0.3,0.7,0.3s0.5-0.1,0.7-0.3c0.4-0.4,0.4-1,0-1.4
		c-0.3-0.3-0.6-0.6-1-0.9c-0.7-0.7-1.4-1.3-1.9-2C53.2,0.8,51.7,0,50.3,0c-1.4,0-2.7,0.9-3.9,2.6C45.2,4.2,44.2,5,43.2,5
		s-2-0.8-3.2-2.5c-2.5-3.4-5.6-3.4-8.1,0C30.7,4.2,29.7,5,28.7,5c-1,0-2-0.8-3.2-2.5c-2.5-3.4-5.6-3.4-8.1,0C16.2,4.2,15.2,5,14.2,5
		s-2-0.8-3.2-2.5C9.8,0.9,8.5,0.1,7.1,0C5.7,0,4.3,0.8,2.9,2.5C2.3,3.2,1.7,3.8,1,4.5C0.6,4.8,0.3,5.1,0,5.4c-0.4,0.4-0.4,1,0,1.4
		S1,7.2,1.4,6.8z"/>
	<path d="M56.4,10.1c-0.7-0.7-1.4-1.3-1.9-2c-1.4-1.7-2.8-2.5-4.2-2.5c-1.4,0-2.7,0.9-3.9,2.6c-1.2,1.6-2.2,2.5-3.2,2.5
		s-2-0.8-3.2-2.5c-2.5-3.4-5.6-3.4-8.1,0c-1.2,1.6-2.2,2.5-3.2,2.5s-2-0.8-3.2-2.5c-2.5-3.4-5.6-3.4-8.1,0c-1.2,1.6-2.2,2.5-3.2,2.5
		s-2-0.8-3.2-2.5C9.8,6.5,8.5,5.6,7.1,5.6c-1.4,0-2.8,0.8-4.2,2.5c-0.6,0.7-1.2,1.3-1.9,2c-0.3,0.3-0.7,0.6-1,0.9
		c-0.4,0.4-0.4,1,0,1.4s1,0.4,1.4,0c0.3-0.3,0.6-0.6,0.9-0.9c0.7-0.7,1.5-1.4,2.1-2.2c0.6-0.8,1.6-1.8,2.6-1.7
		c0.7,0,1.5,0.6,2.3,1.7c1.6,2.2,3.2,3.3,4.8,3.3s3.2-1.1,4.8-3.3c0.6-0.8,1.5-1.7,2.4-1.7s1.8,1,2.4,1.7c1.6,2.2,3.2,3.3,4.8,3.3
		s3.2-1.1,4.8-3.3C34.1,8.5,35,7.6,36,7.6s1.8,1,2.4,1.7c1.6,2.2,3.2,3.3,4.8,3.3s3.2-1.1,4.8-3.3c0.8-1.1,1.6-1.7,2.3-1.7
		c0,0,0,0,0,0c1,0,1.9,0.9,2.5,1.7c0.6,0.8,1.4,1.5,2.1,2.2c0.3,0.3,0.6,0.6,0.9,0.9c0.2,0.2,0.5,0.3,0.7,0.3s0.5-0.1,0.7-0.3
		c0.4-0.4,0.4-1,0-1.4C57.1,10.7,56.8,10.4,56.4,10.1z"/>
</g>
</svg>
