<?xml version="1.0" encoding="utf-8"?>
<!-- Generator: Adobe Illustrator 18.1.1, SVG Export Plug-In . SVG Version: 6.00 Build 0)  -->
<svg version="1.1" id="Layer_1" xmlns="http://www.w3.org/2000/svg" xmlns:xlink="http://www.w3.org/1999/xlink" x="0px" y="0px"
	 viewBox="0 0 54 54" enable-background="new 0 0 54 54" xml:space="preserve">
<g>
	<path fill="#C2C2C2" d="M53.7,52.3L45.4,44c1.6-1.9,2.6-4.4,2.6-7c0-5.7-4.4-10.4-10-10.9V7c0,0,0,0,0,0c0-0.3-0.1-0.5-0.3-0.7
		l-6-6C31.5,0.1,31.3,0,31,0H7C6.7,0,6.5,0.1,6.3,0.3l-6,6c0,0,0,0,0,0l0,0c0,0,0,0,0,0C0.2,6.4,0.1,6.5,0.1,6.6C0,6.7,0,6.9,0,7
		c0,0,0,0,0,0v30c0,0.6,0.4,1,1,1h25.1c0.5,5.6,5.2,10,10.9,10c2.7,0,5.1-1,7-2.6l8.3,8.3c0.2,0.2,0.5,0.3,0.7,0.3s0.5-0.1,0.7-0.3
		C54.1,53.3,54.1,52.7,53.7,52.3z M7.4,2h23.2l4,4H24H14H3.4L7.4,2z M15,8h8v7.9l-3.4-2.7C19.4,13.1,19.2,13,19,13s-0.4,0.1-0.6,0.2
		L15,15.9V8z M2,8h11v10c0,0.4,0.2,0.7,0.6,0.9c0.3,0.2,0.8,0.1,1.1-0.1l4.4-3.5l4.4,3.5c0.2,0.1,0.4,0.2,0.6,0.2
		c0.1,0,0.3,0,0.4-0.1c0.3-0.2,0.6-0.5,0.6-0.9V8h11v18.1c-5.3,0.5-9.5,4.7-9.9,9.9H2V8z M28,37c0-5,4-9,9-9s9,4,9,9
		c0,2.3-0.9,4.5-2.4,6.1c-0.1,0-0.2,0.1-0.3,0.2s-0.2,0.2-0.2,0.3C41.5,45.1,39.3,46,37,46C32,46,28,42,28,37z"/>
	<path fill="#C2C2C2" d="M17,23H6c-0.6,0-1,0.4-1,1v8c0,0.6,0.4,1,1,1h11c0.6,0,1-0.4,1-1v-8C18,23.4,17.6,23,17,23z M16,25v2H7v-2
		H16z M7,31v-2h9v2H7z"/>
</g>
</svg>
