<?xml version="1.0" encoding="utf-8"?>
<!-- Generator: Adobe Illustrator 18.1.1, SVG Export Plug-In . SVG Version: 6.00 Build 0)  -->
<svg version="1.1" id="Layer_1" xmlns="http://www.w3.org/2000/svg" xmlns:xlink="http://www.w3.org/1999/xlink" x="0px" y="0px"
	 viewBox="0 0 54 54" enable-background="new 0 0 54 54" xml:space="preserve">
<g>
	<path fill="#C2C2C2" d="M49,21h-1v-3c0-2.8-2.2-5-5-5c0,0,0,0,0,0V9c0-1.7-1.3-3-3-3H30V3c0-1.7-1.3-3-3-3H8C6.3,0,5,1.3,5,3v10
		c0,0,0,0,0,0c-2.8,0-5,2.2-5,5v8v1v22c0,2.8,2.2,5,5,5h44c2.8,0,5-2.2,5-5V26C54,23.2,51.8,21,49,21z M43,15c1.7,0,3,1.3,3,3v3h-3
		L43,15C43,15,43,15,43,15z M41,9v12h-1.3c0.2-0.6,0.3-1.3,0.3-2c0-3.9-3.1-7-7-7s-7,3.1-7,7c0,0.7,0.1,1.4,0.3,2H20V9
		c0-0.6,0.4-1,1-1h19C40.6,8,41,8.4,41,9z M28.4,21c-0.3-0.6-0.4-1.3-0.4-2c0-2.8,2.2-5,5-5s5,2.2,5,5c0,0.7-0.1,1.4-0.4,2H28.4z
		 M21,6c-0.4,0-0.7,0.1-1,0.2V2h4v4H21z M28,3v3h-2V2h1C27.6,2,28,2.4,28,3z M8,2h10v6c0,0.1,0,0.2,0.1,0.4C18,8.6,18,8.8,18,9v12H7
		V3C7,2.4,7.4,2,8,2z M2,18c0-1.7,1.3-3,3-3c0,0,0,0,0,0v6h0C3.3,21,2,19.7,2,18L2,18z M52,49c0,1.7-1.3,3-3,3H5c-1.7,0-3-1.3-3-3
		V27v-1v-4c0.8,0.6,1.9,1,3,1h22.8c0,0,0,0,0,0c0,0,0,0,0,0H49c1.7,0,3,1.3,3,3V49z"/>
	<path fill="#C2C2C2" d="M43.5,32c-3,0-5.5,2.5-5.5,5.5s2.5,5.5,5.5,5.5s5.5-2.5,5.5-5.5S46.5,32,43.5,32z M43.5,41
		c-1.9,0-3.5-1.6-3.5-3.5s1.6-3.5,3.5-3.5s3.5,1.6,3.5,3.5S45.4,41,43.5,41z"/>
</g>
</svg>
